<?xml version="1.0" encoding="UTF-8"?>
<svg id="Layer_1" data-name="Layer 1" xmlns="http://www.w3.org/2000/svg" viewBox="0 0 1900.49 830.79">
  <path d="m0,132.19c10.83-26.47,28.76-44.91,57.7-50.76,3.7-.75,7.52-1.21,11.29-1.21,354.11,0,708.22.02,1062.33.26,23.95.02,41.16,14.75,59.04,30.21-21.24,18.59-43.08,33.3-71.96,33.3-255.88-.01-511.75,0-767.63,0-11.02,0-22.06.42-33.05-.05-9.11-.39-13.44,2.86-12.79,12.36.39,5.72.34,11.53-.23,17.23-1.22,12.08-7.78,18.85-20.35,19.14-12.12.27-21.49-7.27-22.82-18.54-.06-.47,0-.96-.03-1.44q-2.18-28.72-31.74-28.74c-40.25-.01-80.5.34-120.75-.17-19.24-.24-44.61,19.76-43.09,43.73,2.11,33.41,1.21,67.06.25,100.57-.39,13.57,4.69,20.7,16.53,26.16,44.8,20.69,70.47,56.16,82.54,103.85,16.19,63.94-19.67,145.59-77.51,172.19-15.98,7.35-22.73,16.54-21.85,34.81,1.59,32.98.24,66.1.35,99.16.08,23.45,19.3,42.96,42.24,42.98,45.52.04,91.04-.4,136.55.11,12.49.14,17.26-3.98,16.61-16.58-.8-15.29-.35-30.66-.12-45.98.23-15.96,7.7-23.87,21.9-23.75,14.17.11,21.36,8.16,21.41,24.13.05,15.81.49,31.65-.2,47.43-.5,11.29,3.46,14.69,14.93,14.66,142.79-.38,285.58-.3,428.37-.26,114.99.03,229.98.12,344.97.3,22.33.04,42.16-20.29,42.68-45.86.62-30.65-.28-61.33.31-91.99.32-16.62-12.44-25.15-21-35.64-25.36-31.07-37.62-67.34-45.15-105.68-1.65-8.38-3.47-13.66-13.43-13.91-8.49-.22-13.26-4.57-12.85-14.76.85-21.21.74-42.5.04-63.72-.34-10.25,3.79-14.36,13.26-13.49,8.58.79,11.34-3.21,12.98-11.12,26.49-128.07,112.7-223.17,246.19-252.89,42.09-9.37,85.18-14.43,127.94-20.51,45.35-6.45,90.79-12.32,136.31-17.44,61.7-6.94,123.15-15.66,182.33-34.74,37.49-12.09,73.82-27.82,110.49-42.37,9.99-3.96,18.98-5.35,27.52,2.51v43.12c-10.07,30.87-25.62,58.52-47,83.12-49.72,57.19-117,74.48-187.96,83.7-24.36,3.17-48.76,6.07-73.12,9.23-28.05,3.63-56.03,7.78-84.12,11.01-29.08,3.34-58.3,5.52-87.38,8.9-7.86.91-15.43,4.32-23.13,6.58-.06,1.84-.11,3.68-.17,5.53,6.61,1.51,13.24,4.39,19.84,4.33,77.9-.7,155.8-1.71,233.7-2.93,22.34-.35,44.68-1.45,67-2.55,16.56-.82,33.08-2.53,49.64-3.17,6.06-.23,14.81-.59,17.57,2.89,2.98,3.76,2.26,12.76-.07,18.05-14.79,33.6-38.2,59.76-70.13,78.26-47.39,27.47-99.95,34.08-153.04,36.19-33.28,1.32-66.73-1.61-100.1-2.78-20.93-.74-41.88-1.27-62.75-2.81-14.59-1.08-29.02-4.31-43.61-5.47-11.72-.93-23.58-.19-35.38-.19-.22,2-.44,4-.66,5.99,5.66,2.68,11.06,6.54,17.02,7.85,45.31,9.96,90.46,21.05,136.2,28.55,42.77,7.02,86.19,10.08,129.32,14.84,12.4,1.37,17.28,9.68,9.69,19.33-9.35,11.89-19.36,23.95-31.3,32.99-54.53,41.28-117.02,43.2-180.98,32.97-47.18-7.54-92.18-22.85-135.48-43.12-2.7-1.26-6.37-.44-9.59-.59,7.01,10.5,14.14,19.22,23.21,24.78,29.39,18.02,59.66,34.6,89.17,52.43,5.4,3.26,8.82,9.79,13.15,14.8-5.06,4.18-9.49,10.44-15.29,12.21-50.15,15.31-99.71,13.02-147.43-9.12-19.28-8.95-37.29-20.63-57.05-31.72,0,3.2-.87,6.11.14,8.03,6.53,12.45,11.28,26.81,20.73,36.57,19.94,20.6,24.6,44.49,23.83,71.55-.9,31.59.29,63.23-.35,94.84-.23,11.14-2.41,22.4-5.04,33.29-6.3,26.19-26.79,38.21-49.52,47.62H51.75C27.2,822.23,9.7,806.21,0,781.92,0,706.21,0,630.51,0,554.8c7.54-2.95,14.92-7.79,22.66-8.46,18.07-1.58,33.64-7.43,47.09-19.65,24.38-22.13,32.06-50.02,30.82-82.02-1.5-38.87-30.7-74.43-69.35-79.8C20.5,363.39,10.39,357.45,0,353.56v-221.37Z" fill="#8b5cf6" stroke-width="0"/>
  <path d="m636.52,330.57c-12.7,4.09-26.57,6.16-37.84,12.71-22.2,12.9-22.26,44.01.64,55.78,24.99,12.84,51.96,21.88,78.2,32.22,25.3,9.97,50.73,20.13,67.27,43.08,37.18,51.55,31.01,149.72-61.57,174.56-12.8,3.43-17.03,8.95-16.35,21.47.43,7.88-1.26,16.03-3.05,23.81-.73,3.17-3.7,6.86-6.63,8.29-13.92,6.78-28.75,7.87-42.33.36-4.46-2.47-7.85-10.57-8.13-16.28-1.58-31.57-1.27-31.2-32.85-36.95-26.69-4.86-51.84-13.67-72.81-32.03-7.86-6.88-8.75-14.15-3.58-22.59,7.18-11.72,14.62-23.29,21.84-35,5.79-9.39,12.23-9.15,21.5-3.91,19.54,11.05,39.03,23.17,60.08,30.33,20.19,6.87,42.19,4.62,62.5-3.78,12.34-5.1,21.66-13.59,23.6-27.7,2.49-18.13-2.41-34.03-19.44-42.32-24.5-11.92-50.34-21.11-74.8-33.11-20.26-9.94-41.36-19.81-58.59-33.97-51.79-42.55-40.58-141.68,35.2-169.44,9.67-3.54,19.58-7.28,29.68-8.5,9.47-1.15,10.76-5.76,10.26-13.34-.28-4.29-.54-8.69.08-12.92,1.26-8.63-4.43-19.42,8.48-24.54,16.02-6.35,31.45-6.06,46.28,2.57,2.01,1.17,2.61,5.74,2.84,8.81.46,6.2.21,12.45.27,18.67.13,13.56,6.1,19.62,20.11,23.93,21.73,6.69,42.28,17.66,62.62,28.19,10.5,5.43,11.81,15.37,5.1,25.5-6.03,9.11-12.14,18.17-18.39,27.13-9.2,13.19-14.78,14.21-27.97,4.8-21.32-15.21-44.36-24.78-72.2-25.84Z" fill="#8b5cf6" stroke-width="0"/>
  <path d="m261.61,582.35c-.02-9.58-.24-19.16.04-28.74.36-12.51,9.58-21.63,21.6-21.82,11.53-.18,21.23,9.27,21.45,21.81.34,19.15.36,38.32.06,57.47-.21,13.23-10.19,23.61-21.96,23.76-12.03.15-20.94-9.83-21.18-23.75,0-.48,0-.96,0-1.44,0-9.1,0-18.2-.02-27.3Z" fill="#8b5cf6" stroke-width="0"/>
  <path d="m304.8,436.65c0,9.54.32,19.1-.08,28.63-.53,12.79-9.25,20.59-22.22,20.56-13.32-.04-20.43-6.22-20.78-19.7-.51-20.03-.47-40.09-.08-60.13.25-12.81,9.32-21.02,21.77-20.9,12.27.12,20.92,8.54,21.39,21.48.36,10.01.07,20.04.07,30.06h-.07Z" fill="#8b5cf6" stroke-width="0"/>
  <path d="m304.79,287.58c.01,9.55.39,19.12-.08,28.65-.61,12.42-11.7,23.19-22.93,22.99-10.78-.2-19.99-10.56-20.14-23.35-.23-18.62-.31-37.26.02-55.88.22-12.5,9.84-21.64,21.7-21.55,11.92.09,20.95,9.16,21.37,21.92.3,9.06.06,18.15.07,27.22Z" fill="#8b5cf6" stroke-width="0"/>
</svg>